<?xml version="1.0" encoding="utf-8"?>
<?xml-stylesheet type="text/xsl" href="rss1.xsl"?>
<rss version="2.0" xmlns:atom="http://www.w3.org/2005/Atom" xmlns:content="http://purl.org/rss/1.0/modules/content/" xmlns:dc="http://purl.org/dc/elements/1.1/" xmlns:media="http://search.yahoo.com/mrss/">
<channel>
 <title>Getty</title>
 <link>http://www.gettyimg.com/</link>
 <atom:link href="http://www.gettyimg.com/" rel="self" type="application/rss+xml" />

 
                <item>
                <title><![CDATA[【Apple Music】WEB-RiP - CLMD - Dust (feat. Astrid S) (1080p)]]></title>
                <link><![CDATA[https://sharemania.us/threads/clmd-dust-feat-astrid-s-1080p.239899/]]></link>
                <description><![CDATA[<article>
<blockquote class="messageText SelectQuoteContainer ugc baseHtml">
<img src="https://i.postimg.cc/vm0dWgwD/CLMD-Dust-feat-Astrid-S-mp4.jpg" class="bbCodeImage LbImage" alt="[​IMG]" data-url="https://i.postimg.cc/vm0dWgwD/CLMD-Dust-feat-Astrid-S-mp4.jpg" style=""><br>
<br>
<div class="bbCodeBlock bbCodeCode">
<div class="type">Code:</div>
<pre>General
Complete name                  : G:\Новая папка\CLMD - Dust (feat. Astrid S).mp4
Format                         : MPEG-4
Format profile                 : Base Media
Codec ID                       : isom (isom/iso2/avc1/mp41)
File size                      : 238 MiB
Duration                       : 3 min 18 s
Overall bit rate               : 10.0 Mb/s
Frame rate                     : 25.000 FPS
Movie name                     : Dust (feat. Astrid S)
Performer                      : CLMD
Genre                          : Electronica
ContentType                    : Music Video
Recorded date                  : 2016-01-29 08:00:00 UTC
Writing application            : Lavf56.30.100
Copyright                      : ℗ (C) 2016 UpNorth Recordings, under exclusive license with Sony Music Entertainment Norway AS

Video
ID                             : 1
Format                         : AVC
Format/Info                    : Advanced Video Codec
Format profile                 : High@L4
Format settings                : CABAC / 5 Ref Frames
Format settings, CABAC         : Yes
Format settings, Reference fra : 5 frames
Format settings, Slice count   : 8 slices per frame
Codec ID                       : avc1
Codec ID/Info                  : Advanced Video Coding
Duration                       : 3 min 18 s
Bit rate                       : 9 771 kb/s
Width                          : 1 916 pixels
Height                         : 816 pixels
Display aspect ratio           : 2.35:1
Frame rate mode                : Constant
Frame rate                     : 25.000 FPS
Color space                    : YUV
Chroma subsampling             : 4:2:0
Bit depth                      : 8 bits
Scan type                      : Progressive
Bits/(Pixel*Frame)             : 0.250
Stream size                    : 232 MiB (97%)
Color range                    : Limited
Color primaries                : BT.709
Transfer characteristics       : BT.709
Matrix coefficients            : BT.709
Codec configuration box        : avcC

Audio
ID                             : 2
Format                         : AAC LC
Format/Info                    : Advanced Audio Codec Low Complexity
Codec ID                       : mp4a-40-2
Duration                       : 3 min 18 s
Duration_LastFrame             : -12 ms
Bit rate mode                  : Constant
Bit rate                       : 257 kb/s
Channel(s)                     : 2 channels
Channel layout                 : L R
Sampling rate                  : 48.0 kHz
Frame rate                     : 46.875 FPS (1024 SPF)
Compression mode               : Lossy
Stream size                    : 6.10 MiB (3%)
Default                        : Yes
Alternate group                : 1

</pre>
</div>
<div class="bbCodeBlock bbCodeVfcHH HiddenContent">
<div class="attribution type">Hidden Content:</div>
<blockquote>You must either reply or click 'Like' to see the hidden information contained here.</blockquote>
</div>
<div class="messageTextEndMarker">&nbsp;</div>
</blockquote>
</article>]]></description>
                <author><![CDATA[vitalya3]]></author>
                </item>

                
                <item>
                <title><![CDATA[【Albums (lossless)】FLAC - Bread - Lost Without Your Love [Qobuz Hi-Res 24bit/192kHz]]]></title>
                <link><![CDATA[https://sharemania.us/threads/bread-lost-without-your-love-qobuz-hi-res-24bit-192khz.239898/]]></link>
                <description><![CDATA[<article>
<blockquote class="messageText SelectQuoteContainer ugc baseHtml">
<img src="https://static.qobuz.com/images/covers/68/37/0603497893768_600.jpg" class="bbCodeImage LbImage" alt="[​IMG]" data-url="https://static.qobuz.com/images/covers/68/37/0603497893768_600.jpg" style=""> <br>
<span style="font-size: 18px"><b>ABOUT THE ALBUM</b></span><br>
<ul>
<li>1 disc(s) - 11 track(s)</li>
<li>Total length: 00:36:16</li>
<li>Main artists: <a href="https://www.qobuz.com/gb-en/interpreter/bread/174396" target="_blank" class="externalLink" rel="nofollow">Bread</a></li>
<li>Label: <a href="https://www.qobuz.com/gb-en/label/rhino-elektra/download-streaming-albums/7470" target="_blank" class="externalLink" rel="nofollow">Rhino - Elektra</a></li>
<li>Genre: <a href="https://www.qobuz.com/gb-en/genre/pop-rock/download-streaming-albums" target="_blank" class="externalLink" rel="nofollow">Pop/Rock</a> <a href="https://www.qobuz.com/gb-en/genre/pop/download-streaming-albums" target="_blank" class="externalLink" rel="nofollow">Pop</a></li>
</ul><b><span style="color: #ff0000">DOWNLOAD:</span></b><br>
<div class="bbCodeBlock bbCodeVfcHH HiddenContent">
<div class="attribution type">Hidden Content:</div>
<blockquote>You must either reply or click 'Like' to see the hidden information contained here.</blockquote>
</div>
<div class="messageTextEndMarker">&nbsp;</div>
</blockquote>
</article>]]></description>
                <author><![CDATA[olobersykes99]]></author>
                </item>

                
                <item>
                <title><![CDATA[【Apple Music】WEB-RiP - Zara Larsson - You Love Who You Love (1080p)]]></title>
                <link><![CDATA[https://sharemania.us/threads/zara-larsson-you-love-who-you-love-1080p.239902/]]></link>
                <description><![CDATA[<article>
<blockquote class="messageText SelectQuoteContainer ugc baseHtml">
<img src="https://i.postimg.cc/Jzb3M5KX/Zara-Larsson-You-Love-Who-You-Love-mp4.jpg" class="bbCodeImage LbImage" alt="[​IMG]" data-url="https://i.postimg.cc/Jzb3M5KX/Zara-Larsson-You-Love-Who-You-Love-mp4.jpg" style=""><br>
<br>
<div class="bbCodeBlock bbCodeCode">
<div class="type">Code:</div>
<pre>General
Complete name                  : G:\Новая папка\Zara Larsson - You Love Who You Love.mp4
Format                         : MPEG-4
Format profile                 : Base Media
Codec ID                       : isom (isom/iso2/avc1/mp41)
File size                      : 173 MiB
Duration                       : 3 min 32 s
Overall bit rate               : 6 852 kb/s
Frame rate                     : 25.000 FPS
Movie name                     : You Love Who You Love
Performer                      : Zara Larsson
Genre                          : Pop
ContentType                    : Music Video
Recorded date                  : 2024-02-09 08:00:00 UTC
Writing application            : Lavf56.30.100
Copyright                      : ℗ (C) 2023 Sommer House, under exclusive license to Epic Records, a division of Sony Music Entertainment.

Video
ID                             : 1
Format                         : AVC
Format/Info                    : Advanced Video Codec
Format profile                 : High@L4
Format settings                : CABAC / 5 Ref Frames
Format settings, CABAC         : Yes
Format settings, Reference fra : 5 frames
Format settings, Slice count   : 8 slices per frame
Codec ID                       : avc1
Codec ID/Info                  : Advanced Video Coding
Duration                       : 3 min 32 s
Bit rate                       : 6 590 kb/s
Width                          : 1 440 pixels
Height                         : 1 080 pixels
Display aspect ratio           : 4:3
Frame rate mode                : Constant
Frame rate                     : 25.000 FPS
Color space                    : YUV
Chroma subsampling             : 4:2:0
Bit depth                      : 8 bits
Scan type                      : Progressive
Bits/(Pixel*Frame)             : 0.170
Stream size                    : 167 MiB (96%)
Color range                    : Limited
Color primaries                : BT.709
Transfer characteristics       : BT.709
Matrix coefficients            : BT.709
Codec configuration box        : avcC

Audio
ID                             : 2
Format                         : AAC LC
Format/Info                    : Advanced Audio Codec Low Complexity
Codec ID                       : mp4a-40-2
Duration                       : 3 min 32 s
Duration_LastFrame             : -12 ms
Bit rate mode                  : Constant
Bit rate                       : 257 kb/s
Channel(s)                     : 2 channels
Channel layout                 : L R
Sampling rate                  : 48.0 kHz
Frame rate                     : 46.875 FPS (1024 SPF)
Compression mode               : Lossy
Stream size                    : 6.50 MiB (4%)
Default                        : Yes
Alternate group                : 1

</pre>
</div>
<div class="bbCodeBlock bbCodeVfcHH HiddenContent">
<div class="attribution type">Hidden Content:</div>
<blockquote>You must either reply or click 'Like' to see the hidden information contained here.</blockquote>
</div>
<div class="messageTextEndMarker">&nbsp;</div>
</blockquote>
</article>]]></description>
                <author><![CDATA[vitalya3]]></author>
                </item>

                
                <item>
                <title><![CDATA[【MASTER &amp; MASTER RIP】MASTER - Enrique Iglesias &amp; Miranda Lambert – Space in My Heart (MasterRip AVC 2160p) – 2024]]></title>
                <link><![CDATA[https://sharemania.us/threads/enrique-iglesias-miranda-lambert-%E2%80%93-space-in-my-heart-masterrip-avc-2160p-%E2%80%93-2024.239900/]]></link>
                <description><![CDATA[<article>
<blockquote class="messageText SelectQuoteContainer ugc baseHtml">
<div style="text-align: center"><span style="font-family: 'Times New Roman'"><span style="font-size: 15px"> <img src="https://i.imgur.com/5i4R1a9.jpeg" class="bbCodeImage LbImage" alt="[​IMG]" data-url="https://i.imgur.com/5i4R1a9.jpeg" style=""> <br>
</span></span>​</div>
<div class="ToggleTriggerAnchor bbCodeSpoilerContainer">
<button type="button" class="button bbCodeSpoilerButton ToggleTrigger Tooltip JsOnly" data-target="> .SpoilerTarget"><span>Spoiler: <span class="SpoilerTitle">MediaInfo</span></span></button>
<div class="SpoilerTarget bbCodeSpoilerText"><span style="font-family: 'Times New Roman'"><span style="font-size: 15px">General<br>
Complete name : F:\Enrique Iglesias &amp; Miranda Lambert – Space in My Heart (MasterRip AVC 2160p) – 2024.mp4<br>
Format : MPEG-4<br>
Format profile : Base Media<br>
Codec ID : isom (isom/iso2/avc1/mp41)<br>
File size : 855 MiB<br>
Duration : 2 min 58 s<br>
Overall bit rate : 40.2 Mb/s<br>
Movie name : Space in My Heart<br>
Track name/Position : 1<br>
Description : USSD22400007<br>
Writing application : Lavf58.29.100<br>
<br>
Video<br>
ID : 1<br>
Format : AVC<br>
Format/Info : Advanced Video Codec<br>
Format profile : High@L5.2<br>
Format settings : CABAC / 4 Ref Frames<br>
Format settings, CABAC : Yes<br>
Format settings, Reference frames : 4 frames<br>
Codec ID : avc1<br>
Codec ID/Info : Advanced Video Coding<br>
Duration : 2 min 58 s<br>
Bit rate : 40.0 Mb/s<br>
Width : 3 840 pixels<br>
Height : 2 160 pixels<br>
Display aspect ratio : 16:9<br>
Frame rate mode : Constant<br>
Frame rate : 23.976 (24000/1001) FPS<br>
Color space : YUV<br>
Chroma subsampling : 4:2:0<br>
Bit depth : 8 bits<br>
Scan type : Progressive<br>
Bits/(Pixel*Frame) : 0.201<br>
Stream size : 847 MiB (99%)<br>
Writing library : x264 core 164 r3153 5f84d40<br>
Encoding settings : cabac=1 / ref=3 / deblock=1:0:0 / analyse=0x3:0x113 / me=hex / subme=7 / psy=1 / psy_rd=1.00:0.00 / mixed_ref=1 / me_range=16 / chroma_me=1 / trellis=1 / 8x8dct=1 / cqm=0 / deadzone=21,11 / fast_pskip=1 / chroma_qp_offset=-2 / threads=24 / lookahead_threads=4 / sliced_threads=0 / nr=0 / decimate=1 / interlaced=0 / bluray_compat=0 / constrained_intra=0 / bframes=3 / b_pyramid=2 / b_adapt=1 / b_bias=0 / direct=1 / weightb=1 / open_gop=0 / weightp=2 / keyint=250 / keyint_min=23 / scenecut=40 / intra_refresh=0 / rc_lookahead=40 / rc=abr / mbtree=1 / bitrate=40000 / ratetol=1.0 / qcomp=0.60 / qpmin=0 / qpmax=69 / qpstep=4 / ip_ratio=1.40 / aq=1:1.00<br>
Language : English<br>
Codec configuration box : avcC<br>
<br>
Audio<br>
ID : 2<br>
Format : AAC LC<br>
Format/Info : Advanced Audio Codec Low Complexity<br>
Codec ID : mp4a-40-2<br>
Duration : 2 min 58 s<br>
Duration_LastFrame : -5 ms<br>
Bit rate mode : Constant<br>
Bit rate : 384 kb/s<br>
Channel(s) : 2 channels<br>
Channel layout : L R<br>
Sampling rate : 48.0 kHz<br>
Frame rate : 46.875 FPS (1024 SPF)<br>
Compression mode : Lossy<br>
Stream size : 8.13 MiB (1%)<br>
Language : English<br>
Default : Yes<br>
Alternate group : 1<br>
<br>
Other<br>
ID : 3<br>
Type : Time code<br>
Format : QuickTime TC<br>
Duration : 2 min 58 s<br>
Frame rate : 23.976 (24000/1001) FPS<br>
Time code of first frame : 00:00:00:00<br>
Time code of last frame : 00:02:58:06<br>
Time code, stripped : Yes<br>
Language : English<br>
Default : No<br>
<br>
<br>
</span></span></div>
</div><br>
<div style="text-align: center"><span style="font-family: 'Times New Roman'"><span style="font-size: 15px"><br>
<div class="bbCodeBlock bbCodeVfcHH HiddenContent">
<div class="attribution type">Hidden Content:</div>
<blockquote>You must either reply or click 'Like' to see the hidden information contained here.</blockquote>
</div></span></span>​</div>
<div class="messageTextEndMarker">&nbsp;</div>
</blockquote>
</article>]]></description>
                <author><![CDATA[mariellisaa]]></author>
                </item>

                
                <item>
                <title><![CDATA[【Albums (lossless)】FLAC - Bread - On The Waters [Qobuz Hi-Res 24bit/192kHz]]]></title>
                <link><![CDATA[https://sharemania.us/threads/bread-on-the-waters-qobuz-hi-res-24bit-192khz.239901/]]></link>
                <description><![CDATA[<article>
<blockquote class="messageText SelectQuoteContainer ugc baseHtml">
<img src="https://static.qobuz.com/images/covers/29/38/0603497893829_600.jpg" class="bbCodeImage LbImage" alt="[​IMG]" data-url="https://static.qobuz.com/images/covers/29/38/0603497893829_600.jpg" style=""> <br>
<span style="font-size: 18px"><b>ABOUT THE ALBUM</b></span><br>
<ul>
<li>1 disc(s) - 12 track(s)</li>
<li>Total length: 00:37:24</li>
<li>Main artists: <a href="https://www.qobuz.com/gb-en/interpreter/bread/174396" target="_blank" class="externalLink" rel="nofollow">Bread</a></li>
<li>Label: <a href="https://www.qobuz.com/gb-en/label/rhino-elektra/download-streaming-albums/7470" target="_blank" class="externalLink" rel="nofollow">Rhino - Elektra</a></li>
<li>Genre: <a href="https://www.qobuz.com/gb-en/genre/pop-rock/download-streaming-albums" target="_blank" class="externalLink" rel="nofollow">Pop/Rock</a> <a href="https://www.qobuz.com/gb-en/genre/pop/download-streaming-albums" target="_blank" class="externalLink" rel="nofollow">Pop</a></li>
</ul><b><span style="color: #ff0000">DOWNLOAD:</span></b><br>
<div class="bbCodeBlock bbCodeVfcHH HiddenContent">
<div class="attribution type">Hidden Content:</div>
<blockquote>You must either reply or click 'Like' to see the hidden information contained here.</blockquote>
</div>
<div class="messageTextEndMarker">&nbsp;</div>
</blockquote>
</article>]]></description>
                <author><![CDATA[olobersykes99]]></author>
                </item>

                </channel></rss>